<svg xmlns="http://www.w3.org/2000/svg" viewBox="0 0 100 100" width="100" height="100">
  <path d="M49.6 7.4c-13.6 0-12.7 5.9-12.7 5.9l.01 6.1h13.1v1.9H30.4S19 19.9 19 33.6c0 13.6 9.9 13.1 9.9 13.1h5.9v-8.3s-.3-9.9 9.8-9.9h16.8s9.4.2 9.4-9.1c0-9.4-8.2-12-14.2-12h-7zm-4.3 4.2c1.3 0 2.3 1 2.3 2.3s-1 2.3-2.3 2.3-2.3-1-2.3-2.3 1-2.3 2.3-2.3z" fill="#387eb8" />
  <path d="M50.4 92.6c13.6 0 12.7-5.9 12.7-5.9l-.01-6.1H50v-1.9h19.6s11.4 1.4 11.4-12.3c0-13.6-9.9-13.1-9.9-13.1h-5.9v8.3s.3 9.9-9.8 9.9H38.6s-9.4-.2-9.4 9.1c0 9.4 8.2 12 14.2 12h7zm4.3-4.2c-1.3 0-2.3-1-2.3-2.3s1-2.3 2.3-2.3 2.3 1 2.3 2.3-1 2.3-2.3 2.3z" fill="#ffe052" />
</svg>
